<svg width="21" height="20" viewBox="0 0 21 20" fill="none" xmlns="http://www.w3.org/2000/svg">
<path d="M17.5251 6.46857C17.9557 7.0122 17.4849 7.70832 16.7914 7.70832H2.68135C2.12907 7.70832 1.68135 7.26061 1.68135 6.70832V5.34999C1.68135 3.31666 3.34589 1.66666 5.39714 1.66666H7.3475C8.7178 1.66666 9.14655 2.10832 9.69299 2.83332L10.8699 4.38332C11.1305 4.72499 11.1642 4.76666 11.6518 4.76666H13.9972C15.4282 4.76666 16.7039 5.43175 17.5251 6.46857Z" fill="#6E7391"/>
<path d="M17.4814 8.95811C18.0324 8.95811 18.4796 9.40374 18.4815 9.95469L18.4949 13.875C18.4949 16.3333 16.4772 18.3333 13.9972 18.3333H6.17896C3.69897 18.3333 1.68135 16.3333 1.68135 13.875V9.95831C1.68135 9.40603 2.12906 8.95832 2.68134 8.95831L17.4814 8.95811Z" fill="#6E7391"/>
</svg>
