<svg width="40" height="40" viewBox="0 0 40 40" fill="none" xmlns="http://www.w3.org/2000/svg">
<rect width="40" height="40" rx="20" fill="white"/>
<path d="M17.2991 28.2681C17.2991 28.0201 17.3742 27.9202 17.6225 27.9202H18.2922L18.6155 29.084C18.9798 29.3383 19.4151 29.4772 19.8627 29.4821C20.7713 29.4821 21.1826 29.0394 21.1826 28.5249C21.1826 28.0568 20.8298 27.671 20.0729 27.456C19.8585 27.3952 19.5642 27.3067 19.3789 27.2548C18.1347 26.907 17.2519 26.3472 17.2519 25.1176C17.2519 23.6332 18.4791 23.0149 19.8646 23.0149C20.7537 22.9883 21.6308 23.2204 22.3848 23.6819V25.1537C22.3848 25.4219 22.2878 25.5016 22.0615 25.5016H21.4009L21.0452 24.2837C20.7085 24.0897 20.3232 23.9911 19.9325 23.9991C19.1953 23.9991 18.707 24.3122 18.707 24.9162C18.707 25.5202 19.3149 25.8235 20.1003 26.0468C20.3267 26.11 20.5246 26.1685 20.6956 26.2166C21.8157 26.5313 22.7072 27.1603 22.7072 28.3095C22.7072 29.9597 21.3676 30.4793 19.875 30.4793C18.9575 30.508 18.0545 30.2506 17.2966 29.7443L17.2991 28.2681ZM16.2848 28.5691C16.289 28.5408 16.2866 28.5118 16.2778 28.4845C16.2691 28.4571 16.2542 28.432 16.2342 28.411C16.2142 28.39 16.1897 28.3737 16.1624 28.3632C16.1351 28.3527 16.1058 28.3483 16.0765 28.3503C15.9356 28.3503 15.8547 28.4629 15.7066 28.6033C15.4845 28.8562 15.2098 29.0598 14.9009 29.2006C14.5919 29.3414 14.2558 29.4162 13.9149 29.4198C12.7806 29.4198 11.753 28.4003 11.753 26.7479C11.753 25.2324 12.5232 24.0408 13.9149 24.0408C14.2588 24.045 14.5997 24.1025 14.9251 24.2113L15.3021 25.5025H15.9524C16.1584 25.5025 16.2848 25.445 16.2848 25.1546V23.6822C15.5916 23.2196 14.7653 22.9859 13.9266 23.0152C11.6589 23.0152 10.1576 24.401 10.1576 26.7469C10.1576 29.2288 11.6984 30.4786 13.7992 30.4786C14.6855 30.4897 15.5536 30.2327 16.2848 29.7427V28.5691ZM29.6037 28.5691C29.6078 28.5408 29.6055 28.5119 29.5967 28.4845C29.588 28.4572 29.5731 28.4321 29.5532 28.4111C29.5332 28.3902 29.5087 28.3738 29.4815 28.3633C29.4543 28.3527 29.425 28.3483 29.3957 28.3503C29.2544 28.3503 29.1736 28.4629 29.0255 28.6033C28.8034 28.8562 28.5287 29.0599 28.2198 29.2007C27.9108 29.3415 27.5747 29.4162 27.2338 29.4198C26.0998 29.4198 25.0719 28.4003 25.0719 26.7479C25.0719 25.2324 25.8421 24.0408 27.2338 24.0408C27.5776 24.045 27.9186 24.1025 28.244 24.2113L28.621 25.5025H29.2712C29.4772 25.5025 29.6037 25.445 29.6037 25.1546V23.6822C28.9105 23.2195 28.0841 22.9858 27.2454 23.0152C24.9778 23.0152 23.4765 24.401 23.4765 26.7469C23.4765 29.2288 25.0176 30.4786 27.1184 30.4786C28.0045 30.4896 28.8725 30.2326 29.6037 29.7427V28.5691Z" fill="#003B5C"/>
<path d="M14.6228 11.8758C15.2289 11.8764 15.8244 12.0312 16.3509 12.3251C16.8773 12.6189 17.3164 13.0418 17.6251 13.5519C17.9591 12.7861 18.3575 12.0486 18.816 11.3471C18.172 10.692 17.3769 10.1972 16.4974 9.90414C15.6178 9.61107 14.6793 9.52821 13.7603 9.6625C12.8413 9.79678 11.9686 10.1443 11.215 10.676C10.4615 11.2077 9.84903 11.9081 9.42891 12.7187C9.0088 13.5293 8.79322 14.4265 8.80021 15.3352C8.8072 16.244 9.03655 17.1379 9.46909 17.9422C9.90162 18.7465 10.5248 19.4379 11.2864 19.9584C12.0481 20.479 12.9261 20.8136 13.847 20.9344V18.622C13.0099 18.4354 12.2724 17.9537 11.7754 17.269C11.2784 16.5843 11.0567 15.7445 11.1527 14.91C11.2487 14.0756 11.6557 13.305 12.2958 12.7454C12.936 12.1858 13.7645 11.8765 14.6231 11.8765L14.6228 11.8758Z" fill="#003B5C"/>
<path d="M26.1538 9.64627V11.9587C26.7179 12.0839 27.2413 12.3441 27.6771 12.7161C28.1129 13.0881 28.4474 13.5601 28.6506 14.0898C28.8538 14.6194 28.9192 15.1901 28.8411 15.7507C28.763 16.3112 28.5437 16.844 28.203 17.3011C27.8623 17.7583 27.4109 18.1255 26.8892 18.3699C26.3675 18.6142 25.7919 18.728 25.2142 18.701C24.6364 18.6739 24.0745 18.507 23.5791 18.2151C23.0836 17.9232 22.67 17.5156 22.3754 17.0287C22.0413 17.7946 21.6428 18.532 21.1842 19.2336C21.8282 19.8886 22.6232 20.3833 23.5027 20.6764C24.3822 20.9695 25.3207 21.0523 26.2397 20.9181C27.1586 20.7838 28.0314 20.4363 28.7849 19.9046C29.5385 19.373 30.1509 18.6726 30.571 17.8621C30.9912 17.0515 31.2068 16.1544 31.1999 15.2457C31.193 14.337 30.9637 13.4431 30.5312 12.6388C30.0988 11.8345 29.4758 11.1431 28.7142 10.6225C27.9526 10.1019 27.0747 9.76713 26.1538 9.64627V9.64627Z" fill="#6E7173"/>
<path d="M24.6104 11.9214V9.62643C21.0626 9.96766 19.8814 12.6909 18.9194 14.8318C17.7408 17.4567 17.0181 18.2849 15.39 18.6284V20.9347C18.8379 20.5865 20.1119 17.8754 21.0568 15.7341C22.0106 13.5738 22.7333 12.1921 24.6104 11.9214Z" fill="#0DA59D"/>
</svg>
