<svg width="20" height="20" viewBox="0 0 20 20" fill="none" xmlns="http://www.w3.org/2000/svg">
<path d="M17.5 13.5417H12.5C12.1583 13.5417 11.875 13.2583 11.875 12.9167C11.875 12.575 12.1583 12.2917 12.5 12.2917H17.5C17.8417 12.2917 18.125 12.575 18.125 12.9167C18.125 13.2583 17.8417 13.5417 17.5 13.5417Z" fill="#6E7391"/>
<path d="M17.5 16.875H12.5C12.1583 16.875 11.875 16.5917 11.875 16.25C11.875 15.9083 12.1583 15.625 12.5 15.625H17.5C17.8417 15.625 18.125 15.9083 18.125 16.25C18.125 16.5917 17.8417 16.875 17.5 16.875Z" fill="#6E7391"/>
<path d="M18.3333 7.09999V3.31666C18.3333 2.14166 17.8 1.66666 16.475 1.66666H13.1083C11.7833 1.66666 11.25 2.14166 11.25 3.31666V7.09166C11.25 8.27499 11.7833 8.74166 13.1083 8.74166H16.475C17.8 8.74999 18.3333 8.27499 18.3333 7.09999Z" fill="#6E7391"/>
<path d="M8.75 7.09999V3.31666C8.75 2.14166 8.21666 1.66666 6.89166 1.66666H3.525C2.2 1.66666 1.66666 2.14166 1.66666 3.31666V7.09166C1.66666 8.27499 2.2 8.74166 3.525 8.74166H6.89166C8.21666 8.74999 8.75 8.27499 8.75 7.09999Z" fill="#6E7391"/>
<path d="M8.75 16.475V13.1083C8.75 11.7833 8.21666 11.25 6.89166 11.25H3.525C2.2 11.25 1.66666 11.7833 1.66666 13.1083V16.475C1.66666 17.8 2.2 18.3333 3.525 18.3333H6.89166C8.21666 18.3333 8.75 17.8 8.75 16.475Z" fill="#6E7391"/>
</svg>
