<svg width="20" height="21" viewBox="0 0 20 21" fill="none" xmlns="http://www.w3.org/2000/svg">
<path d="M9.16479 2.16759H7.49813C3.33146 2.16759 1.66479 3.83426 1.66479 8.00093V13.0009C1.66479 17.1676 3.33146 18.8343 7.49813 18.8343H12.4981C16.6648 18.8343 18.3315 17.1676 18.3315 13.0009V11.3343" stroke="#637883" stroke-linecap="round" stroke-linejoin="round"/>
<path d="M13.3688 3.01583L6.8021 9.5825C6.5521 9.8325 6.3021 10.3242 6.2521 10.6825L5.89376 13.1908C5.76043 14.0992 6.4021 14.7325 7.31043 14.6075L9.81876 14.2492C10.1688 14.1992 10.6604 13.9492 10.9188 13.6992L17.4854 7.1325C18.6188 5.99917 19.1521 4.6825 17.4854 3.01583C15.8188 1.34917 14.5021 1.8825 13.3688 3.01583Z" stroke="#637883" stroke-miterlimit="10" stroke-linecap="round" stroke-linejoin="round"/>
<path d="M12.4255 3.95889C12.9839 5.95056 14.5422 7.50889 16.5422 8.07556" stroke="#637883" stroke-miterlimit="10" stroke-linecap="round" stroke-linejoin="round"/>
</svg>
