<svg width="21" height="21" viewBox="0 0 21 21" fill="none" xmlns="http://www.w3.org/2000/svg">
<path d="M8.3916 13.2333C8.23327 13.2333 8.07493 13.1749 7.94993 13.0499C7.2666 12.3666 6.8916 11.4583 6.8916 10.4999C6.8916 8.50827 8.50827 6.8916 10.4999 6.8916C11.4583 6.8916 12.3666 7.2666 13.0499 7.94993C13.1666 8.0666 13.2333 8.22494 13.2333 8.3916C13.2333 8.55827 13.1666 8.7166 13.0499 8.83327L8.83327 13.0499C8.70827 13.1749 8.54993 13.2333 8.3916 13.2333ZM10.4999 8.1416C9.19993 8.1416 8.1416 9.19993 8.1416 10.4999C8.1416 10.9166 8.24993 11.3166 8.44993 11.6666L11.6666 8.44993C11.3166 8.24993 10.9166 8.1416 10.4999 8.1416Z" fill="#757D85"/>
<path d="M5.16678 15.9251C5.02511 15.9251 4.87511 15.8751 4.75845 15.7751C3.86678 15.0167 3.06678 14.0834 2.38345 13.0001C1.50011 11.6251 1.50011 9.3834 2.38345 8.00007C4.41678 4.81673 7.37511 2.9834 10.5001 2.9834C12.3334 2.9834 14.1418 3.61673 15.7251 4.8084C16.0001 5.01673 16.0584 5.4084 15.8501 5.6834C15.6418 5.9584 15.2501 6.01673 14.9751 5.8084C13.6084 4.77507 12.0584 4.2334 10.5001 4.2334C7.80845 4.2334 5.23345 5.85007 3.43345 8.67507C2.80845 9.65007 2.80845 11.3501 3.43345 12.3251C4.05845 13.3001 4.77511 14.1417 5.56678 14.8251C5.82511 15.0501 5.85845 15.4417 5.63345 15.7084C5.51678 15.8501 5.34178 15.9251 5.16678 15.9251Z" fill="#757D85"/>
<path d="M10.4999 18.0166C9.39156 18.0166 8.30822 17.7916 7.26656 17.3499C6.94989 17.2166 6.79989 16.8499 6.93322 16.5333C7.06656 16.2166 7.43322 16.0666 7.74989 16.1999C8.63322 16.5749 9.55822 16.7666 10.4916 16.7666C13.1832 16.7666 15.7582 15.1499 17.5582 12.3249C18.1832 11.3499 18.1832 9.64992 17.5582 8.67492C17.2999 8.26658 17.0166 7.87492 16.7166 7.50825C16.4999 7.24158 16.5416 6.84992 16.8082 6.62492C17.0749 6.40825 17.4666 6.44158 17.6916 6.71658C18.0166 7.11658 18.3332 7.54992 18.6166 7.99992C19.4999 9.37492 19.4999 11.6166 18.6166 12.9999C16.5832 16.1833 13.6249 18.0166 10.4999 18.0166Z" fill="#757D85"/>
<path d="M11.0749 14.0581C10.7832 14.0581 10.5166 13.8498 10.4582 13.5498C10.3916 13.2081 10.6166 12.8831 10.9582 12.8248C11.8749 12.6581 12.6416 11.8915 12.8082 10.9748C12.8749 10.6331 13.1999 10.4165 13.5416 10.4748C13.8832 10.5415 14.1082 10.8665 14.0416 11.2081C13.7749 12.6498 12.6249 13.7915 11.1916 14.0581C11.1499 14.0498 11.1166 14.0581 11.0749 14.0581Z" fill="#757D85"/>
<path d="M2.16662 19.4583C2.00828 19.4583 1.84995 19.3999 1.72495 19.2749C1.48328 19.0333 1.48328 18.6333 1.72495 18.3916L7.94995 12.1666C8.19162 11.9249 8.59162 11.9249 8.83328 12.1666C9.07495 12.4083 9.07495 12.8083 8.83328 13.0499L2.60828 19.2749C2.48328 19.3999 2.32495 19.4583 2.16662 19.4583Z" fill="#757D85"/>
<path d="M12.6083 9.01686C12.4499 9.01686 12.2916 8.95853 12.1666 8.83353C11.9249 8.59186 11.9249 8.19186 12.1666 7.95019L18.3916 1.7252C18.6333 1.48353 19.0333 1.48353 19.2749 1.7252C19.5166 1.96686 19.5166 2.36686 19.2749 2.60853L13.0499 8.83353C12.9249 8.95853 12.7666 9.01686 12.6083 9.01686Z" fill="#757D85"/>
</svg>
