<svg width="82" height="82" viewBox="0 0 82 82" fill="none" xmlns="http://www.w3.org/2000/svg">
<path d="M36.6137 10.9515C36.6137 9.80494 35.6842 8.87549 34.5376 8.87549H9.41179C8.2652 8.87549 7.33575 9.80494 7.33575 10.9515V11.7545C7.33575 12.6831 6.58298 13.4359 5.6544 13.4359C4.50782 13.4359 3.57837 14.3654 3.57837 15.5119V34.9676H76.2343V13.4357H39.098C37.7259 13.4357 36.6137 12.3235 36.6137 10.9515Z" fill="#25B0B4"/>
<path d="M74.2987 17.4673H8.18481V51.5247H74.2987V17.4673Z" fill="#EBF0F3"/>
<path d="M77.8481 73.1245H4.15189C1.8589 73.1245 0 71.2656 0 68.9726V24.8481C0 22.5551 1.8589 20.6962 4.15189 20.6962H48.7358C50.441 20.6962 51.9728 19.6537 52.5983 18.0672L54.6176 12.9454C55.2431 11.359 56.7749 10.3164 58.48 10.3164H77.8478C80.1407 10.3164 81.9996 12.1753 81.9996 14.4683V68.9726C82 71.2656 80.1411 73.1245 77.8481 73.1245Z" fill="#3BC0C3"/>
</svg>
