<svg width="20" height="20" viewBox="0 0 20 20" fill="none" xmlns="http://www.w3.org/2000/svg">
<path d="M17.3586 6.67534L11.9003 2.30867C10.8336 1.45867 9.16696 1.45034 8.10863 2.30034L2.65029 6.67534C1.86696 7.30034 1.39196 8.55034 1.55863 9.53367L2.60863 15.817C2.85029 17.2253 4.15863 18.3337 5.58363 18.3337H14.417C15.8253 18.3337 17.1586 17.2003 17.4003 15.8087L18.4503 9.52534C18.6003 8.55034 18.1253 7.30034 17.3586 6.67534ZM10.6253 15.0003C10.6253 15.342 10.342 15.6253 10.0003 15.6253C9.65863 15.6253 9.37529 15.342 9.37529 15.0003V12.5003C9.37529 12.1587 9.65863 11.8753 10.0003 11.8753C10.342 11.8753 10.6253 12.1587 10.6253 12.5003V15.0003Z" fill="#637883"/>
</svg>
