<svg width="21" height="21" viewBox="0 0 21 21" fill="none" xmlns="http://www.w3.org/2000/svg">
<path d="M15.5 9.45817C15.1583 9.45817 14.875 9.17484 14.875 8.83317V7.1665C14.875 4.5415 14.1333 2.7915 10.5 2.7915C6.86667 2.7915 6.125 4.5415 6.125 7.1665V8.83317C6.125 9.17484 5.84167 9.45817 5.5 9.45817C5.15833 9.45817 4.875 9.17484 4.875 8.83317V7.1665C4.875 4.74984 5.45833 1.5415 10.5 1.5415C15.5417 1.5415 16.125 4.74984 16.125 7.1665V8.83317C16.125 9.17484 15.8417 9.45817 15.5 9.45817Z" fill="#757D85"/>
<path d="M14.6667 19.4585H6.33341C2.65841 19.4585 1.54175 18.3418 1.54175 14.6668V13.0002C1.54175 9.32516 2.65841 8.2085 6.33341 8.2085H14.6667C18.3417 8.2085 19.4584 9.32516 19.4584 13.0002V14.6668C19.4584 18.3418 18.3417 19.4585 14.6667 19.4585ZM6.33341 9.4585C3.35008 9.4585 2.79175 10.0252 2.79175 13.0002V14.6668C2.79175 17.6418 3.35008 18.2085 6.33341 18.2085H14.6667C17.6501 18.2085 18.2084 17.6418 18.2084 14.6668V13.0002C18.2084 10.0252 17.6501 9.4585 14.6667 9.4585H6.33341Z" fill="#757D85"/>
<path d="M7.16659 14.6667C7.05825 14.6667 6.94991 14.6417 6.84991 14.6001C6.74158 14.5584 6.65826 14.5 6.57493 14.425C6.42493 14.2667 6.33325 14.0584 6.33325 13.8334C6.33325 13.7251 6.35824 13.6167 6.39991 13.5167C6.44157 13.4084 6.49993 13.3251 6.57493 13.2417C6.65826 13.1667 6.74158 13.1084 6.84991 13.0667C7.14991 12.9334 7.52491 13.0084 7.75824 13.2417C7.83324 13.3251 7.8916 13.4167 7.93326 13.5167C7.97493 13.6167 7.99992 13.7251 7.99992 13.8334C7.99992 14.0501 7.90824 14.2667 7.75824 14.425C7.59991 14.575 7.38325 14.6667 7.16659 14.6667Z" fill="#757D85"/>
<path d="M10.5001 14.6669C10.2834 14.6669 10.0668 14.5752 9.90842 14.4252C9.75842 14.2669 9.66675 14.0586 9.66675 13.8336C9.66675 13.7253 9.6834 13.6169 9.7334 13.5169C9.77507 13.4169 9.83342 13.3253 9.90842 13.2419C10.1001 13.0503 10.3918 12.9586 10.6584 13.0169C10.7168 13.0252 10.7668 13.0419 10.8168 13.0669C10.8668 13.0836 10.9167 13.1086 10.9667 13.1419C11.0084 13.1669 11.0501 13.2086 11.0917 13.2419C11.1667 13.3253 11.2251 13.4169 11.2668 13.5169C11.3084 13.6169 11.3334 13.7253 11.3334 13.8336C11.3334 14.0586 11.2417 14.2669 11.0917 14.4252C11.0501 14.4586 11.0084 14.4919 10.9667 14.5252C10.9167 14.5586 10.8668 14.5836 10.8168 14.6003C10.7668 14.6253 10.7168 14.6419 10.6584 14.6503C10.6084 14.6586 10.5501 14.6669 10.5001 14.6669Z" fill="#757D85"/>
<path d="M13.8333 14.6669C13.6083 14.6669 13.4 14.5752 13.2417 14.4252C13.1667 14.3419 13.1083 14.2503 13.0667 14.1503C13.025 14.0503 13 13.9419 13 13.8336C13 13.6169 13.0917 13.4003 13.2417 13.2419C13.2833 13.2086 13.325 13.1753 13.3667 13.1419C13.4167 13.1086 13.4667 13.0836 13.5167 13.0669C13.5667 13.0419 13.6167 13.0252 13.6667 13.0169C13.9417 12.9586 14.225 13.0503 14.425 13.2419C14.575 13.4003 14.6667 13.6086 14.6667 13.8336C14.6667 13.9419 14.6417 14.0503 14.6 14.1503C14.5583 14.2586 14.5 14.3419 14.425 14.4252C14.2667 14.5752 14.05 14.6669 13.8333 14.6669Z" fill="#757D85"/>
</svg>
