<svg width="20" height="20" viewBox="0 0 20 20" fill="none" xmlns="http://www.w3.org/2000/svg">
<path d="M11.9583 1.66667H8.04167C7.175 1.66667 6.46667 2.36667 6.46667 3.23334V4.01667C6.46667 4.88334 7.16667 5.58334 8.03333 5.58334H11.9583C12.825 5.58334 13.525 4.88334 13.525 4.01667V3.23334C13.5333 2.36667 12.825 1.66667 11.9583 1.66667Z" fill="#6E7391"/>
<path d="M14.3667 4.01667C14.3667 5.34167 13.2833 6.425 11.9583 6.425H8.04167C6.71667 6.425 5.63334 5.34167 5.63334 4.01667C5.63334 3.55 5.13334 3.25833 4.71667 3.475C3.54167 4.1 2.74167 5.34166 2.74167 6.76666V14.6083C2.74167 16.6583 4.41667 18.3333 6.46667 18.3333H13.5333C15.5833 18.3333 17.2583 16.6583 17.2583 14.6083V6.76666C17.2583 5.34166 16.4583 4.1 15.2833 3.475C14.8667 3.25833 14.3667 3.55 14.3667 4.01667ZM10.3167 14.125H6.66667C6.325 14.125 6.04167 13.8417 6.04167 13.5C6.04167 13.1583 6.325 12.875 6.66667 12.875H10.3167C10.6583 12.875 10.9417 13.1583 10.9417 13.5C10.9417 13.8417 10.6583 14.125 10.3167 14.125ZM12.5 10.7917H6.66667C6.325 10.7917 6.04167 10.5083 6.04167 10.1667C6.04167 9.825 6.325 9.54166 6.66667 9.54166H12.5C12.8417 9.54166 13.125 9.825 13.125 10.1667C13.125 10.5083 12.8417 10.7917 12.5 10.7917Z" fill="#6E7391"/>
</svg>
