<svg width="71" height="66" viewBox="0 0 71 66" fill="none" xmlns="http://www.w3.org/2000/svg">
<path d="M2 19.6777C2 12.486 2 8.89018 3.76364 6.32882C4.45515 5.32452 5.32452 4.45515 6.32882 3.76364C8.89018 2 12.486 2 19.6777 2V2C22.8105 2 24.3769 2 25.8274 2.45108C26.4084 2.63175 26.9716 2.86506 27.5102 3.14811C28.8548 3.85481 29.9624 4.96243 32.1777 7.17767L33.6421 8.64214C36.5324 11.5324 37.9776 12.9776 39.8153 13.7388C41.653 14.5 43.6968 14.5 47.7843 14.5H48.6667C58.0948 14.5 62.8088 14.5 65.7377 17.4289C68.6667 20.3579 68.6667 25.0719 68.6667 34.5V44.5C68.6667 53.9281 68.6667 58.6421 65.7377 61.5711C62.8088 64.5 58.0948 64.5 48.6667 64.5H22C12.5719 64.5 7.85786 64.5 4.92893 61.5711C2 58.6421 2 53.9281 2 44.5V19.6777Z" stroke="#5368E8" stroke-width="3"/>
</svg>
