<svg width="16" height="17" viewBox="0 0 16 17" fill="none" xmlns="http://www.w3.org/2000/svg">
<path d="M15.813 15.1211L11.8369 11.1451C12.9205 9.81987 13.4532 8.12893 13.325 6.42197C13.1967 4.71502 12.4173 3.12267 11.1479 1.97427C9.87853 0.825873 8.21631 0.209301 6.50509 0.252087C4.79386 0.294873 3.16454 0.993743 1.95414 2.20414C0.743743 3.41454 0.0448727 5.04386 0.00208668 6.75509C-0.0406994 8.46631 0.575873 10.1285 1.72427 11.3979C2.87267 12.6673 4.46502 13.4467 6.17197 13.575C7.87893 13.7032 9.56987 13.1705 10.8951 12.0869L14.8711 16.063C14.9967 16.1844 15.165 16.2515 15.3397 16.25C15.5143 16.2485 15.6814 16.1784 15.8049 16.0549C15.9284 15.9314 15.9985 15.7643 16 15.5897C16.0015 15.415 15.9344 15.2467 15.813 15.1211ZM6.68251 12.2615C5.62855 12.2615 4.59825 11.9489 3.72191 11.3634C2.84556 10.7778 2.16254 9.94555 1.7592 8.97182C1.35587 7.99808 1.25034 6.9266 1.45595 5.89289C1.66157 4.85917 2.16911 3.90964 2.91437 3.16437C3.65964 2.41911 4.60917 1.91157 5.64289 1.70595C6.6766 1.50034 7.74808 1.60587 8.72182 2.0092C9.69555 2.41254 10.5278 3.09556 11.1134 3.97191C11.6989 4.84825 12.0115 5.87855 12.0115 6.93251C12.0099 8.34535 11.4479 9.69987 10.4489 10.6989C9.44987 11.6979 8.09535 12.2599 6.68251 12.2615Z" fill="#9C9C9D"/>
</svg>
