<svg width="20" height="21" viewBox="0 0 20 21" fill="none" xmlns="http://www.w3.org/2000/svg">
<path d="M17.5 5.48333C14.725 5.20833 11.9333 5.06667 9.15 5.06667C7.5 5.06667 5.85 5.15 4.2 5.31667L2.5 5.48333" stroke="#637883" stroke-linecap="round" stroke-linejoin="round"/>
<path d="M7.08325 4.64166L7.26659 3.55C7.39992 2.75833 7.49992 2.16666 8.90825 2.16666H11.0916C12.4999 2.16666 12.6083 2.79166 12.7333 3.55833L12.9166 4.64166" stroke="#637883" stroke-linecap="round" stroke-linejoin="round"/>
<path d="M15.7084 8.11667L15.1667 16.5083C15.0751 17.8167 15.0001 18.8333 12.6751 18.8333H7.32508C5.00008 18.8333 4.92508 17.8167 4.83341 16.5083L4.29175 8.11667" stroke="#637883" stroke-linecap="round" stroke-linejoin="round"/>
<path d="M8.6084 14.25H11.3834" stroke="#637883" stroke-linecap="round" stroke-linejoin="round"/>
<path d="M7.91675 10.9167H12.0834" stroke="#637883" stroke-linecap="round" stroke-linejoin="round"/>
</svg>
