<svg width="20" height="20" viewBox="0 0 20 20" fill="none" xmlns="http://www.w3.org/2000/svg">
<path d="M10 3.875C6.01667 3.875 2.775 7.11667 2.775 11.1C2.775 15.0833 6.01667 18.3333 10 18.3333C13.9833 18.3333 17.225 15.0917 17.225 11.1083C17.225 7.125 13.9833 3.875 10 3.875ZM10.625 10.8333C10.625 11.175 10.3417 11.4583 10 11.4583C9.65833 11.4583 9.375 11.175 9.375 10.8333V6.66667C9.375 6.325 9.65833 6.04167 10 6.04167C10.3417 6.04167 10.625 6.325 10.625 6.66667V10.8333Z" fill="#6E7391"/>
<path d="M12.4083 2.875H7.59167C7.25833 2.875 6.99167 2.60833 6.99167 2.275C6.99167 1.94167 7.25833 1.66667 7.59167 1.66667H12.4083C12.7417 1.66667 13.0083 1.93333 13.0083 2.26667C13.0083 2.6 12.7417 2.875 12.4083 2.875Z" fill="#6E7391"/>
</svg>
