<svg width="21" height="21" viewBox="0 0 21 21" fill="none" xmlns="http://www.w3.org/2000/svg">
<path d="M10.4999 11.1248C7.85825 11.1248 5.70825 8.97484 5.70825 6.33317C5.70825 3.6915 7.85825 1.5415 10.4999 1.5415C13.1416 1.5415 15.2916 3.6915 15.2916 6.33317C15.2916 8.97484 13.1416 11.1248 10.4999 11.1248ZM10.4999 2.7915C8.54992 2.7915 6.95825 4.38317 6.95825 6.33317C6.95825 8.28317 8.54992 9.87484 10.4999 9.87484C12.4499 9.87484 14.0416 8.28317 14.0416 6.33317C14.0416 4.38317 12.4499 2.7915 10.4999 2.7915Z" fill="#757D85"/>
<path d="M17.6585 19.4583C17.3168 19.4583 17.0335 19.175 17.0335 18.8333C17.0335 15.9583 14.1001 13.625 10.5001 13.625C6.90013 13.625 3.9668 15.9583 3.9668 18.8333C3.9668 19.175 3.68346 19.4583 3.3418 19.4583C3.00013 19.4583 2.7168 19.175 2.7168 18.8333C2.7168 15.275 6.20846 12.375 10.5001 12.375C14.7918 12.375 18.2835 15.275 18.2835 18.8333C18.2835 19.175 18.0001 19.4583 17.6585 19.4583Z" fill="#757D85"/>
</svg>
