<svg width="20" height="20" viewBox="0 0 20 20" fill="none" xmlns="http://www.w3.org/2000/svg">
<path d="M10.5647 16.6309C10.7937 16.6841 10.8147 16.984 10.5917 17.0583L9.27499 17.4917C5.96666 18.5583 4.22499 17.6667 3.14999 14.3583L2.08333 11.0667C1.01666 7.75833 1.89999 6.00833 5.20833 4.94166L5.47566 4.85313C5.87852 4.71972 6.27411 5.12508 6.1652 5.53525C6.13452 5.6508 6.10453 5.7696 6.07499 5.89166L5.25833 9.38333C4.34166 13.3083 5.68333 15.475 9.60833 16.4083L10.5647 16.6309Z" fill="#6E7391"/>
<path d="M14.3083 2.675L12.9167 2.35C10.1333 1.69167 8.475 2.23333 7.5 4.25C7.25 4.75834 7.05 5.375 6.88334 6.08334L6.06667 9.575C5.25 13.0583 6.325 14.775 9.8 15.6L11.2 15.9333C11.6833 16.05 12.1333 16.125 12.55 16.1583C15.15 16.4083 16.5333 15.1917 17.2333 12.1833L18.05 8.7C18.8667 5.21667 17.8 3.49167 14.3083 2.675ZM12.7417 11.1083C12.6667 11.3917 12.4167 11.575 12.1333 11.575C12.0833 11.575 12.0333 11.5667 11.975 11.5583L9.55 10.9417C9.21667 10.8583 9.01667 10.5167 9.1 10.1833C9.18334 9.85 9.525 9.65 9.85834 9.73334L12.2833 10.35C12.625 10.4333 12.825 10.775 12.7417 11.1083ZM15.1833 8.29167C15.1083 8.575 14.8583 8.75834 14.575 8.75834C14.525 8.75834 14.475 8.75 14.4167 8.74167L10.375 7.71667C10.0417 7.63334 9.84167 7.29167 9.925 6.95834C10.0083 6.625 10.35 6.425 10.6833 6.50834L14.725 7.53334C15.0667 7.60834 15.2667 7.95 15.1833 8.29167Z" fill="#6E7391"/>
</svg>
